<svg id="visual" viewBox="0 0 1980 250" width="1980" height="250" xmlns="http://www.w3.org/2000/svg" xmlns:xlink="http://www.w3.org/1999/xlink" version="1.1"><rect x="0" y="0" width="1980" height="250" fill="#1D2026"></rect><path d="M0 93L47.2 91.3C94.3 89.7 188.7 86.3 283 99.5C377.3 112.7 471.7 142.3 566 152.3C660.3 162.3 754.7 152.7 848.8 137.2C943 121.7 1037 100.3 1131.2 91.7C1225.3 83 1319.7 87 1414 98.7C1508.3 110.3 1602.7 129.7 1697 134.3C1791.3 139 1885.7 129 1932.8 124L1980 119L1980 251L1932.8 251C1885.7 251 1791.3 251 1697 251C1602.7 251 1508.3 251 1414 251C1319.7 251 1225.3 251 1131.2 251C1037 251 943 251 848.8 251C754.7 251 660.3 251 566 251C471.7 251 377.3 251 283 251C188.7 251 94.3 251 47.2 251L0 251Z" fill="#20232b" stroke-linecap="round" stroke-linejoin="miter"></path></svg>